<svg xmlns="http://www.w3.org/2000/svg" width="1100" height="620" viewBox="0 0 1100 620">
<defs><linearGradient id="bg" x1="0" y1="0" x2="1" y2="1"><stop offset="0" stop-color="#eef4f8"/><stop offset="1" stop-color="#dfe9ee"/></linearGradient><filter id="shadow"><feDropShadow dx="0" dy="5" stdDeviation="8" flood-opacity=".18"/></filter></defs>
<rect x="8" y="8" width="1084" height="604" rx="22" fill="url(#bg)" stroke="#2f80ed" stroke-width="3" filter="url(#shadow)"/>
<rect x="8" y="8" width="1084" height="42" rx="22" fill="#f8fafc"/>
<circle cx="35" cy="29" r="7" fill="#ff6b6b"/><circle cx="59" cy="29" r="7" fill="#ffd166"/><circle cx="83" cy="29" r="7" fill="#4ade80"/>
<text x="550" y="34" text-anchor="middle" font-family="monospace" font-size="14" fill="#334155">arup@devos ~ $ ./profile.sh --live</text>
<text x="1060" y="34" text-anchor="end" font-family="monospace" font-size="11" fill="#ef4444">● ONLINE</text>
<rect x="28" y="68" width="505" height="505" rx="16" fill="#f8fbfd" stroke="#7dd3fc"/>
<text x="48" y="96" font-family="monospace" font-size="13" fill="#64748b">VISUAL.MAP</text>
<g font-family="monospace" font-size="7" fill="#2563eb">
<text x="78" y="145">                 .-''''-.</text><text x="78" y="153">              .-'  .--.  '-.</text>
<text x="78" y="161">            .'   .'    '.   '.</text><text x="78" y="169">           /   .'  .--.  '.   \</text>
<text x="78" y="177">          ;   /   /    \   \   ;</text><text x="78" y="185">          |  ;   |  ()  |   ;  |</text>
<text x="78" y="193">          |  |   | .--. |   |  |</text><text x="78" y="201">          ;  ;    \____/    ;  ;</text>
<text x="78" y="209">           \  \     / \     /  /</text><text x="78" y="217">            '. '.  /___\  .' .'</text>
<text x="78" y="225">              '-./  ___  \.-'</text><text x="78" y="233">                 | |   | |</text>
<text x="78" y="241">            .----' |   | '----.</text><text x="78" y="249">          .'       |   |       '.</text>
<text x="78" y="257">         /         |   |         \</text><text x="78" y="265">        /       .--'   '--.       \</text>
<text x="78" y="273">       ;      .'           '.      ;</text><text x="78" y="281">       |     /    FULL      \     |</text>
<text x="78" y="289">       |    ;     STACK      ;    |</text><text x="78" y="297">       |    |    DEVELOPER   |    |</text>
<text x="78" y="305">       ;    ;               ;    ;</text><text x="78" y="313">        \    \             /    /</text>
<text x="78" y="321">         '.   '._       _.'   .'</text><text x="78" y="329">           '-.   '-----'   .-'</text>
<text x="78" y="337">              '---.   .---'</text><text x="78" y="345">                  |   |</text>
<text x="78" y="353">              .---'   '---.</text><text x="78" y="361">            .'             '.</text>
<text x="78" y="369">           /   React  Next   \</text><text x="78" y="377">          /  Node  Python AWS \</text>
<text x="78" y="385">         ;   AI • APIs • Cloud ;</text>
</g>
<text x="52" y="430" font-family="monospace" font-size="12" fill="#475569">status: building • learning • shipping</text>
<line x1="52" y1="448" x2="508" y2="448" stroke="#93c5fd" stroke-dasharray="2 5"/>
<text x="52" y="478" font-family="monospace" font-size="12" fill="#475569">location: Tripura, India</text>
<text x="52" y="501" font-family="monospace" font-size="12" fill="#475569">focus: full-stack + AI engineering</text>
<text x="52" y="524" font-family="monospace" font-size="12" fill="#475569">website: wednexa.in</text>
<text x="52" y="547" font-family="monospace" font-size="12" fill="#475569">contact: contact@wednexa.in</text>
<rect x="553" y="68" width="519" height="505" rx="16" fill="#f8fbfd" stroke="#7dd3fc"/>
<text x="573" y="96" font-family="monospace" font-size="13" fill="#64748b">SYSTEM.INFO</text>
<g font-family="monospace" font-size="14" fill="#475569">
<text x="573" y="125" fill="#2563eb">arup@devos</text><text x="674" y="125" fill="#64748b">────────────────────────────</text>
<text x="573" y="153">Subject: ............ Arup Kumar</text><text x="573" y="177">Role: ............... Full Stack Developer</text>
<text x="573" y="201">Origin: ............. Tripura, India</text><text x="573" y="225">Status: ............. Building • Learning • Shipping</text>
<text x="573" y="249">ToolChain: .......... Git, Docker, GitHub Actions</text>
<text x="573" y="289" fill="#2563eb">Core Stack</text><text x="665" y="289" fill="#64748b">────────────────────────</text>
<text x="573" y="317">Frontend: ........... React, Next.js, TypeScript</text><text x="573" y="341">Backend: ............ Node.js, Python, FastAPI</text>
<text x="573" y="365">Database: ........... PostgreSQL, MongoDB, Redis</text><text x="573" y="389">Cloud: .............. AWS, Docker</text>
<text x="573" y="413">AI: ................. OpenAI, LangChain, Gemini</text>
<text x="573" y="453" fill="#16a34a">Contact</text><text x="650" y="453" fill="#64748b">──────────────────────────</text>
<text x="573" y="481">Web: ................ wednexa.in</text><text x="573" y="505">Instagram: .......... @arupkumar16</text>
<text x="573" y="529">GitHub: ............. arupkumarbanik</text><text x="573" y="557">Mail: ................ contact@wednexa.in</text>
</g></svg>